<svg width="131" height="48" viewBox="0 0 131 48" fill="none" xmlns="http://www.w3.org/2000/svg">
<path d="M99.0362 29.0594L99.9532 24.3891L92.7482 15.8269L101.918 9.08098L99.9532 6.09719L90.5212 13.2323L83.1852 4.67017L79.9102 7.39449L96.1542 25.1675L95.8922 26.4648L78.8622 29.9675L76.2422 32.9512L78.8622 35.5458L80.8272 33.081L99.0362 29.0594Z" fill="#F3F2F6"/>
<path d="M105.979 11.6756L108.861 14.5297L121.699 14.4L122.354 24.5189L105.586 28.8L102.18 31.9135L104.669 34.6378L107.289 32.1729C107.289 32.1729 130.607 25.8162 130.738 25.9459C130.869 26.0756 130.869 22.3135 130.869 22.3135L125.629 23.6108L124.581 7.00537L122.092 5.96753L119.21 11.027L111.743 11.1567L109.516 8.56212L105.979 11.6756Z" fill="#F3F2F6"/>
<path d="M56.4609 0L54.627 3.24324L57.247 5.57838L58.557 15.3081L71.1329 16.0865L68.1199 27.8919L64.583 33.0811L67.334 35.5459L70.8709 31.2649L76.242 11.027L73.36 9.21081L69.561 12.3243L61.57 11.6757L59.867 1.81622L56.4609 0Z" fill="#F3F2F6"/>
<path d="M23.187 8.82158L24.628 4.92969L28.951 5.8378L29.344 15.3081L46.243 22.054L47.029 12.454L43.623 11.2864L43.754 9.3405L53.317 9.21077L52.793 11.9351L49.649 14.0108L48.863 23.2216L56.199 26.2054L55.02 29.5783L29.475 19.5891L30.523 42.1621L26.855 41.6432L25.545 10.2486L23.187 8.82158Z" fill="#F3F2F6"/>
<path d="M0 3.11358L2.227 6.09736L1.965 17.3838L16.768 19.3298L14.017 29.9676L10.742 33.2109L12.707 36.0649L16.375 33.7298L21.484 15.1784L19.257 12.0649L16.244 15.3082L5.502 14.0109L5.895 3.89195L3.406 0.259521L0 3.11358Z" fill="#F3F2F6"/>
<path d="M36.6405 33.8341L34.9722 35.4844L36.6386 37.1365L38.3069 35.4862L36.6405 33.8341Z" fill="#F3F2F6"/>
<path d="M42.5326 33.8376L40.8647 35.4883L42.5316 37.1399L44.1994 35.4892L42.5326 33.8376Z" fill="#F3F2F6"/>
<path d="M67.3304 39.2477L65.6626 40.8984L67.3295 42.5501L68.9973 40.8994L67.3304 39.2477Z" fill="#F3F2F6"/>
<path d="M114.461 35.4848L112.793 37.1355L114.46 38.7871L116.128 37.1364L114.461 35.4848Z" fill="#F3F2F6"/>
<path d="M93.1412 36.8433L91.8312 34.6379L86.7222 35.546L88.0322 37.7515L93.1412 36.8433Z" fill="#F3F2F6"/>
<path d="M113.655 18.5881L111.988 20.2395L113.656 21.8904L115.323 20.239L113.655 18.5881Z" fill="#F3F2F6"/>
<path d="M67.3248 44.0529L65.6572 45.7039L67.3243 47.3553L68.9919 45.7043L67.3248 44.0529Z" fill="#F3F2F6"/>
<path d="M114.453 40.2922L112.785 41.9431L114.452 43.5945L116.12 41.9436L114.453 40.2922Z" fill="#F3F2F6"/>
</svg>
